<svg width="43" height="43" viewBox="0 0 43 43" fill="none" xmlns="http://www.w3.org/2000/svg">
<path d="M21.5 2.6875C23.2819 2.6875 24.9909 3.39537 26.2509 4.65538C27.5109 5.91539 28.2188 7.62433 28.2188 9.40625V10.75H14.7812V9.40625C14.7813 7.62433 15.4891 5.91539 16.7491 4.65538C18.0091 3.39537 19.7181 2.6875 21.5 2.6875V2.6875ZM30.9062 10.75V9.40625C30.9062 6.91156 29.9152 4.51904 28.1512 2.75503C26.3872 0.991013 23.9947 0 21.5 0C19.0053 0 16.6128 0.991013 14.8488 2.75503C13.0848 4.51904 12.0938 6.91156 12.0938 9.40625V10.75H2.6875V37.625C2.6875 39.0505 3.25379 40.4177 4.2618 41.4257C5.26981 42.4337 6.63696 43 8.0625 43H34.9375C36.363 43 37.7302 42.4337 38.7382 41.4257C39.7462 40.4177 40.3125 39.0505 40.3125 37.625V10.75H30.9062ZM5.375 13.4375H37.625V37.625C37.625 38.3378 37.3419 39.0213 36.8378 39.5253C36.3338 40.0294 35.6503 40.3125 34.9375 40.3125H8.0625C7.34973 40.3125 6.66615 40.0294 6.16215 39.5253C5.65815 39.0213 5.375 38.3378 5.375 37.625V13.4375Z" fill="black"/>
</svg>
