<svg width="43" height="43" viewBox="0 0 43 43" fill="none" xmlns="http://www.w3.org/2000/svg">
<path d="M21.5 21.5C23.6383 21.5 25.689 20.6506 27.201 19.1385C28.7131 17.6265 29.5625 15.5758 29.5625 13.4375C29.5625 11.2992 28.7131 9.24846 27.201 7.73645C25.689 6.22444 23.6383 5.375 21.5 5.375C19.3617 5.375 17.311 6.22444 15.799 7.73645C14.2869 9.24846 13.4375 11.2992 13.4375 13.4375C13.4375 15.5758 14.2869 17.6265 15.799 19.1385C17.311 20.6506 19.3617 21.5 21.5 21.5V21.5ZM26.875 13.4375C26.875 14.863 26.3087 16.2302 25.3007 17.2382C24.2927 18.2462 22.9255 18.8125 21.5 18.8125C20.0745 18.8125 18.7073 18.2462 17.6993 17.2382C16.6913 16.2302 16.125 14.863 16.125 13.4375C16.125 12.012 16.6913 10.6448 17.6993 9.6368C18.7073 8.62879 20.0745 8.0625 21.5 8.0625C22.9255 8.0625 24.2927 8.62879 25.3007 9.6368C26.3087 10.6448 26.875 12.012 26.875 13.4375V13.4375ZM37.625 34.9375C37.625 37.625 34.9375 37.625 34.9375 37.625H8.0625C8.0625 37.625 5.375 37.625 5.375 34.9375C5.375 32.25 8.0625 24.1875 21.5 24.1875C34.9375 24.1875 37.625 32.25 37.625 34.9375ZM34.9375 34.9268C34.9348 34.2656 34.5236 32.2769 32.7015 30.4547C30.9493 28.7025 27.6517 26.875 21.5 26.875C15.3456 26.875 12.0508 28.7025 10.2985 30.4547C8.47638 32.2769 8.06788 34.2656 8.0625 34.9268H34.9375Z" fill="black"/>
</svg>
