<?xml version="1.0" encoding="utf-8"?>
<!-- Generator: Adobe Illustrator 17.1.0, SVG Export Plug-In . SVG Version: 6.00 Build 0)  -->
<!DOCTYPE svg PUBLIC "-//W3C//DTD SVG 1.1//EN" "http://www.w3.org/Graphics/SVG/1.1/DTD/svg11.dtd">
<svg version="1.1" id="Layer_1" xmlns="http://www.w3.org/2000/svg" xmlns:xlink="http://www.w3.org/1999/xlink" x="0px" y="0px"
	 viewBox="0 0 30.4 23.2" enable-background="new 0 0 30.4 23.2" xml:space="preserve">
<path fill="#010101" d="M0,0h30.4c0,0-14,15.5-21,23.2c0.3-0.6,0.5-1.1,0.9-1.6c-0.3,0-0.7-1.3-1-1.9l-1.2,0.6
	c-0.2,0.2-0.6,0.1-0.8-0.1c0-0.1-0.1-0.1-0.1-0.2c-0.2-0.4-0.3-0.8-0.5-1.3c-0.5,0.3-1,0.5-1.5,0.7l-4.9-2.1h3.5l1.6,1.3
	c0.4-0.4,0.7-1,1-1.3h0.9c0.3,0.3,0.6,0.9,1,1.3c0.4-0.4,0.8-0.9,1.2-1.2h0.6c0.3,0.3,0.7,0.8,1,1.1l0.1,0c0,0,0.6-0.8,0.9-1.1h0.7
	c0,0,9-13.5,9-13.6C14.6,2.5,0,0,0,0"/>
<polygon fill="#010101" points="8.9,8 3.9,5.2 12.8,7.3 "/>
</svg>
