<svg width="43" height="43" viewBox="0 0 43 43" fill="none" xmlns="http://www.w3.org/2000/svg">
<g clip-path="url(#clip0_101_3)">
<path d="M42.6279 40.6904L29.7692 27.5469C32.3327 24.4395 33.6144 20.8561 33.6144 16.7969C33.6144 13.7454 32.8771 10.932 31.4024 8.35645C29.9277 5.78092 27.9155 3.7443 25.3658 2.24658C22.8162 0.748861 20.046 0 17.0553 0C14.0646 0 11.3013 0.748861 8.76536 2.24658C6.22946 3.7443 4.22417 5.78092 2.74949 8.35645C1.27482 10.932 0.537476 13.7454 0.537476 16.7969C0.537476 19.8483 1.27482 22.6618 2.74949 25.2373C4.22417 27.8128 6.22946 29.8494 8.76536 31.3472C11.3013 32.8449 14.0715 33.5938 17.0759 33.5938C21.183 33.5938 24.7939 32.222 27.9086 29.4785L40.7259 42.5801C41.0016 42.86 41.3186 43 41.6769 43C42.0352 43 42.3453 42.867 42.6072 42.6011C42.869 42.3351 43 42.0132 43 41.6353C43 41.2573 42.8759 40.9424 42.6279 40.6904ZM17.0759 30.9482C14.54 30.9482 12.204 30.3114 10.0678 29.0376C7.93155 27.7638 6.24324 26.0422 5.00286 23.8726C3.76248 21.703 3.14228 19.3444 3.14228 16.7969C3.14228 14.2493 3.76248 11.8908 5.00286 9.72119C6.24324 7.55159 7.93155 5.82992 10.0678 4.55615C12.204 3.28239 14.5331 2.64551 17.0553 2.64551C19.5774 2.64551 21.9065 3.28239 24.0428 4.55615C26.179 5.82992 27.8673 7.55159 29.1077 9.72119C30.3481 11.8908 30.9682 14.2493 30.9682 16.7969C30.9682 17.8887 30.8442 18.9665 30.5961 20.0303C30.3481 21.0941 29.9966 22.0879 29.5418 23.0117C29.087 23.9355 28.5426 24.8104 27.9086 25.6362C27.2747 26.4621 26.558 27.1969 25.7586 27.8408C24.9593 28.4847 24.1048 29.0376 23.1952 29.4995C22.2856 29.9614 21.307 30.3184 20.2596 30.5703C19.2122 30.8223 18.1509 30.9482 17.0759 30.9482Z" fill="black"/>
</g>
<defs>
<clipPath id="clip0_101_3">
<rect width="43" height="43" fill="white"/>
</clipPath>
</defs>
</svg>
