<svg id="Layer_1" data-name="Layer 1" xmlns="http://www.w3.org/2000/svg" viewBox="0 0 38 24"><defs><style>.cls-1{fill:#b2fce4;}</style></defs><path class="cls-1" d="M35,0H3A3,3,0,0,0,0,3V21a3,3,0,0,0,3,3H35a3,3,0,0,0,3-3V3A3,3,0,0,0,35,0Z"/><path d="M29.58,10.2l-2.46,5.08h-1l.92-1.9L25.58,10.2h1l.93,2.13,1-2.13Z"/><path d="M20.22,12a1,1,0,1,0-1,1,1,1,0,0,0,1-1m-2.85,3.27V10.2h.89v.47a1.41,1.41,0,0,1,1.13-.53A1.77,1.77,0,0,1,21.13,12a1.8,1.8,0,0,1-1.76,1.87,1.39,1.39,0,0,1-1.09-.49v1.9Z"/><path d="M24.33,12a1,1,0,1,0-2,0,1,1,0,1,0,2,0m0,1.8v-.47a1.45,1.45,0,0,1-1.14.53A1.76,1.76,0,0,1,21.46,12a1.8,1.8,0,0,1,1.76-1.87,1.41,1.41,0,0,1,1.11.52V10.2h.89v3.61Z"/><path d="M15.77,10.56a.95.95,0,0,1,1.17-.34v.92A1.08,1.08,0,0,0,16.3,11a.63.63,0,0,0-.5.69v2.14h-.91V10.2h.88Z"/><path d="M36.46,10l-1.05-.6-1.06-.61a1.06,1.06,0,0,0-1.58.92v.13a.2.2,0,0,0,.1.18l.5.29a.2.2,0,0,0,.3-.18V9.81A.21.21,0,0,1,34,9.62l1,.56,1,.56a.21.21,0,0,1,0,.36l-1,.56-1,.55a.21.21,0,0,1-.32-.18v-.16A1.06,1.06,0,0,0,32.09,11L31,11.56,30,12.17A1.05,1.05,0,0,0,30,14l1.05.6,1.06.61a1.05,1.05,0,0,0,1.58-.92v-.13a.2.2,0,0,0-.1-.18l-.49-.29a.21.21,0,0,0-.31.18v.32a.21.21,0,0,1-.32.19l-1-.56-1-.56a.21.21,0,0,1,0-.36l1-.56,1-.55a.21.21,0,0,1,.32.18v.16a1.06,1.06,0,0,0,1.58.92l1.06-.61,1.05-.61A1.05,1.05,0,0,0,36.46,10Z"/><path d="M4.7,12.46a1.81,1.81,0,0,1-1.83,1.4,1.86,1.86,0,1,1,0-3.72,1.8,1.8,0,0,1,1.8,1.38H3.76A1,1,0,0,0,2.89,11a1,1,0,0,0,0,2,.93.93,0,0,0,.87-.57Z"/><path d="M5.12,13.8V8.72H6V13.8Z"/><path d="M7.39,12.24a.91.91,0,0,0,.93.84,1,1,0,0,0,.85-.47h.93a1.77,1.77,0,0,1-1.8,1.25A1.77,1.77,0,0,1,6.45,12a1.82,1.82,0,0,1,1.87-1.87A1.8,1.8,0,0,1,10.17,12a.86.86,0,0,1,0,.23Zm1.81-.56a.86.86,0,0,0-.89-.75.89.89,0,0,0-.91.75Z"/><path d="M13.41,13.8v-.46a1.47,1.47,0,0,1-1.14.52A1.76,1.76,0,0,1,10.53,12a1.79,1.79,0,0,1,1.76-1.86,1.44,1.44,0,0,1,1.12.52V10.2h.88v3.6Zm0-1.8a1,1,0,1,0-1,1A1,1,0,0,0,13.4,12Z"/></svg>