<svg width="100" height="60" viewBox="0 0 100 60" fill="none" xmlns="http://www.w3.org/2000/svg">
<rect width="100" height="60" rx="4" fill="#000066"/>
<g opacity="0.01">
<rect x="17" y="8" width="65.695" height="43.45" fill="white"/>
</g>
<rect x="41.1846" y="15.5698" width="17.33" height="28.305" fill="#FF5F00"/>
<path d="M42.97 29.7248C42.9657 24.2023 45.5008 18.9845 49.845 15.5748C42.4649 9.77486 31.8668 10.6197 25.4987 17.5156C19.1306 24.4115 19.1306 35.0432 25.4987 41.9391C31.8668 48.835 42.4649 49.6798 49.845 43.8798C45.4994 40.4691 42.9641 35.2491 42.97 29.7248Z" fill="#EB001B"/>
<path fill-rule="evenodd" clip-rule="evenodd" d="M77.2503 40.3045V40.9052H77.1403V40.3045H76.9053V40.1802H77.5003V40.3045H77.2503ZM78.4053 40.1802V40.9052H78.2803V40.3562L78.0853 40.8275H77.9503L77.7553 40.3562V40.9052H77.6253V40.1802H77.8053L78.0153 40.698L78.2253 40.1802H78.4053Z" fill="#F79E1B"/>
<path d="M78.9697 29.7249C78.9696 36.6166 75.0344 42.9033 68.8356 45.9149C62.6368 48.9265 55.2625 48.1344 49.8447 43.8749C54.187 40.4624 56.7224 35.2452 56.7224 29.7224C56.7224 24.1996 54.187 18.9825 49.8447 15.5699C55.2625 11.3105 62.6368 10.5184 68.8356 13.53C75.0344 16.5416 78.9696 22.8283 78.9697 29.7199V29.7249Z" fill="#F79E1B"/>
</svg>
