<svg width="100" height="60" viewBox="0 0 100 60" fill="none" xmlns="http://www.w3.org/2000/svg">
<rect width="100" height="60" rx="4" fill="#00457C"/>
<path fill-rule="evenodd" clip-rule="evenodd" d="M78.4262 21.9938L76.4094 34.8255C76.3701 35.0739 76.5621 35.2988 76.8137 35.2988H78.8425C79.1783 35.2988 79.4647 35.0543 79.5166 34.7222L81.5055 22.1211C81.5448 21.8727 81.3528 21.6478 81.1006 21.6478H78.8311C78.6289 21.6478 78.4572 21.7942 78.4262 21.9938Z" fill="white"/>
<path fill-rule="evenodd" clip-rule="evenodd" d="M53.1345 26.193H50.7693C50.5431 26.193 50.3314 26.3052 50.2047 26.4927L46.9417 31.298L45.5591 26.6803C45.4723 26.3913 45.2062 26.193 44.9046 26.193H42.5799C42.2992 26.193 42.1015 26.4693 42.1922 26.7348L44.7963 34.3798L42.3468 37.8361C42.1548 38.1073 42.3487 38.4824 42.6813 38.4824H45.044C45.2677 38.4824 45.4774 38.3728 45.6054 38.1891L53.471 26.8361C53.6591 26.5643 53.4653 26.193 53.1345 26.193Z" fill="white"/>
<path fill-rule="evenodd" clip-rule="evenodd" d="M72.3727 30.7734C72.1452 32.1179 71.0782 33.0208 69.7166 33.0208C69.0342 33.0208 68.4874 32.801 68.1364 32.3853C67.7879 31.9735 67.6574 31.3861 67.7676 30.7329C67.9792 29.3998 69.064 28.4684 70.4047 28.4684C71.0731 28.4684 71.6155 28.6901 71.9735 29.1096C72.334 29.5322 72.4759 30.1227 72.3727 30.7734ZM75.6522 26.1931H73.299C73.0975 26.1931 72.9258 26.3395 72.8941 26.5391L72.7908 27.1967L72.6261 26.9585C72.1167 26.2191 70.9806 25.9713 69.8465 25.9713C67.2468 25.9713 65.026 27.9419 64.5939 30.705C64.369 32.0837 64.6883 33.401 65.4702 34.3204C66.188 35.165 67.2126 35.5166 68.4335 35.5166C70.5295 35.5166 71.6915 34.1708 71.6915 34.1708L71.5864 34.8247C71.5471 35.0731 71.7391 35.298 71.9912 35.298H74.11C74.4465 35.298 74.7322 35.0541 74.7848 34.7221L76.0571 26.6664C76.0964 26.418 75.9037 26.1931 75.6522 26.1931Z" fill="white"/>
<path fill-rule="evenodd" clip-rule="evenodd" d="M37.3219 30.7734C37.0944 32.1179 36.0274 33.0208 34.6658 33.0208C33.9834 33.0208 33.4366 32.801 33.0856 32.3853C32.7377 31.9735 32.6066 31.3861 32.7168 30.7329C32.9285 29.3998 34.0132 28.4684 35.3539 28.4684C36.0224 28.4684 36.5647 28.6901 36.9227 29.1096C37.2832 29.5322 37.4252 30.1227 37.3219 30.7734ZM40.6014 26.1931H38.2482C38.0467 26.1931 37.875 26.3395 37.8433 26.5391L37.7401 27.1967L37.576 26.9585C37.0659 26.2191 35.9299 25.9713 34.7957 25.9713C32.196 25.9713 29.9752 27.9419 29.5431 30.705C29.3182 32.0837 29.6375 33.401 30.4194 34.3204C31.1373 35.165 32.1618 35.5166 33.3828 35.5166C35.4787 35.5166 36.6408 34.1708 36.6408 34.1708L36.5356 34.8247C36.4963 35.0731 36.6883 35.298 36.9405 35.298H39.0592C39.3957 35.298 39.6814 35.0541 39.734 34.7221L41.0063 26.6664C41.0456 26.418 40.853 26.1931 40.6014 26.1931Z" fill="white"/>
<path fill-rule="evenodd" clip-rule="evenodd" d="M26.4802 26.2493C26.2116 28.0133 24.8645 28.0133 23.5612 28.0133H22.8199L23.3401 24.7198C23.3711 24.5209 23.5428 24.3745 23.7443 24.3745H24.0846C24.9716 24.3745 25.8093 24.3745 26.2414 24.8795C26.4999 25.1817 26.5778 25.6303 26.4802 26.2493ZM25.9132 21.6468H20.9989C20.6625 21.6468 20.3767 21.8914 20.3241 22.2234L18.3371 34.8245C18.2979 35.0729 18.4898 35.2979 18.7414 35.2979H21.0883C21.4241 35.2979 21.7098 35.0533 21.7624 34.7219L22.2991 31.322C22.351 30.99 22.6374 30.7454 22.9732 30.7454H24.5281C27.7652 30.7454 29.6337 29.1791 30.1216 26.0738C30.3414 24.7166 30.1304 23.6497 29.4949 22.9026C28.7961 22.0815 27.5574 21.6468 25.9132 21.6468Z" fill="white"/>
<path fill-rule="evenodd" clip-rule="evenodd" d="M61.531 26.2493C61.2624 28.0133 59.9153 28.0133 58.612 28.0133H57.8707L58.3909 24.7198C58.4219 24.5209 58.5936 24.3745 58.7951 24.3745H59.1353C60.0224 24.3745 60.86 24.3745 61.2921 24.8795C61.5506 25.1817 61.6286 25.6303 61.531 26.2493ZM60.9639 21.6468H56.0497C55.7132 21.6468 55.4275 21.8914 55.3749 22.2234L53.3879 34.8245C53.3486 35.0729 53.5412 35.2979 53.7922 35.2979H56.3139C56.549 35.2979 56.7492 35.1268 56.7859 34.8949L57.3498 31.322C57.4018 30.99 57.6882 30.7454 58.024 30.7454H59.5789C62.816 30.7454 64.6845 29.1791 65.1723 26.0738C65.3922 24.7166 65.1812 23.6497 64.5457 22.9026C63.8468 22.0815 62.6081 21.6468 60.9639 21.6468Z" fill="white"/>
</svg>
