<svg width="100" height="60" viewBox="0 0 100 60" fill="none" xmlns="http://www.w3.org/2000/svg">
<rect width="100" height="60" rx="4" fill="#0072CE"/>
<path fill-rule="evenodd" clip-rule="evenodd" d="M84.4075 34.6654H80.8745C80.5217 34.6654 80.2874 34.6786 80.09 34.8115C79.8855 34.9425 79.8067 35.1369 79.8067 35.3934C79.8067 35.6985 79.9794 35.9061 80.2306 35.9958C80.4351 36.0668 80.6548 36.0875 80.9777 36.0875L82.0283 36.1156C83.0885 36.1417 83.7962 36.3234 84.2277 36.7665C84.3062 36.8282 84.3534 36.8975 84.4075 36.9667V34.6654ZM84.4075 39.9975C83.9366 40.684 83.019 41.032 81.7769 41.032H78.0332V39.2978H81.7617C82.1316 39.2978 82.3904 39.2492 82.5462 39.0975C82.6812 38.9724 82.7754 38.7907 82.7754 38.57C82.7754 38.3344 82.6812 38.1474 82.5386 38.0352C82.398 37.9118 82.1932 37.8557 81.8556 37.8557C80.0354 37.794 77.7646 37.9118 77.7646 35.3525C77.7646 34.1794 78.5117 32.9446 80.5459 32.9446H84.4073V31.3354H80.8197C79.737 31.3354 78.9505 31.594 78.3935 31.9959V31.3354H73.087C72.2384 31.3354 71.2423 31.5452 70.7712 31.9959V31.3354H61.2951V31.9959C60.541 31.4535 59.2684 31.3354 58.6811 31.3354H52.4306V31.9959C51.834 31.4198 50.5071 31.3354 49.6984 31.3354H42.703L41.1023 33.0626L39.603 31.3354H29.1533V42.6204H39.4063L41.0558 40.8659L42.6096 42.6204L48.9296 42.6261V39.9714H49.5509C50.3895 39.9843 51.3785 39.9506 52.251 39.5746V42.6202H57.4639V39.679H57.7153C58.0363 39.679 58.0678 39.6921 58.0678 40.0119V42.62H73.9035C74.9089 42.62 75.9598 42.3634 76.5418 41.8978V42.62H81.5648C82.61 42.62 83.6308 42.4739 84.4075 42.0998V39.9975ZM76.6748 36.7665C77.0523 37.156 77.2546 37.6477 77.2546 38.48C77.2546 40.2199 76.1643 41.032 74.2093 41.032H70.4336V39.2978H74.1941C74.5618 39.2978 74.8226 39.2492 74.986 39.0975C75.1193 38.9724 75.2149 38.7907 75.2149 38.57C75.2149 38.3344 75.1115 38.1474 74.9784 38.0352C74.8302 37.9118 74.6257 37.8557 74.2881 37.8557C72.4752 37.794 70.2049 37.9118 70.2049 35.3525C70.2049 34.1794 70.9441 32.9446 72.9764 32.9446H76.8627V34.6659H73.3067C72.9542 34.6659 72.725 34.6791 72.53 34.812C72.3177 34.943 72.2389 35.1374 72.2389 35.3939C72.2389 35.699 72.4192 35.9066 72.6631 35.9963C72.8676 36.0673 73.0872 36.088 73.4175 36.088L74.461 36.1161C75.5134 36.1417 76.2357 36.3231 76.6748 36.7665ZM59.1826 36.267C58.9233 36.4204 58.6026 36.4336 58.2254 36.4336H55.8704V34.6172H58.2574C58.6026 34.6172 58.948 34.6245 59.1826 34.7632C59.4338 34.8942 59.584 35.1447 59.584 35.4907C59.584 35.8368 59.4338 36.1156 59.1826 36.267ZM60.3533 37.2735C60.7848 37.4323 61.1376 37.7169 61.3029 37.9525C61.5767 38.3474 61.6163 38.7159 61.6241 39.4287V41.032H59.6779V40.0202C59.6779 39.5336 59.7249 38.8132 59.3646 38.4371C59.0813 38.1474 58.6496 38.0781 57.9424 38.0781H55.8707V41.032H53.9228V32.9444H58.3983C59.3797 32.9444 60.0945 32.9875 60.7308 33.326C61.3426 33.6945 61.7274 34.1994 61.7274 35.122C61.7271 36.4129 60.8636 37.0716 60.3533 37.2735ZM62.8022 32.9444H69.2722V34.6169H64.7328V36.0873H69.1613V37.7374H64.7328V39.3465L69.2722 39.3539V41.032H62.8022V32.9444ZM49.7231 36.6768H47.218V34.6172H49.7456C50.4455 34.6172 50.9313 34.9015 50.9313 35.6088C50.9313 36.3082 50.468 36.6768 49.7231 36.6768ZM45.2872 40.2965L42.3109 37.0021L45.2872 33.8123V40.2965ZM37.601 39.3465H32.8348V37.7374H37.0907V36.0873H32.8348V34.6169H37.6949L39.8153 36.9738L37.601 39.3465ZM53.0125 35.6088C53.0125 37.8554 51.3313 38.3193 49.6368 38.3193H47.218V41.032H43.4501L41.0631 38.3547L38.5824 41.032H30.9038V32.9444H38.7006L41.0856 35.5954L43.5514 32.9444H49.7456C51.2841 32.9444 53.0125 33.369 53.0125 35.6088Z" fill="white"/>
<path fill-rule="evenodd" clip-rule="evenodd" d="M21.6545 23.6243L20.3277 20.4009L19.0085 23.6243H21.6545ZM50.8841 22.3408C50.6177 22.502 50.3026 22.5073 49.9252 22.5073H47.5702V20.7114H49.9572C50.2951 20.7114 50.6476 20.7265 50.8765 20.8572C51.128 20.975 51.2836 21.2257 51.2836 21.5721C51.2836 21.9254 51.1356 22.2098 50.8841 22.3408ZM67.6841 23.6243L66.3426 20.4009L65.0084 23.6243H67.6841ZM36.3679 27.1133H34.3806L34.3733 20.7806L31.5623 27.1133H29.8603L27.042 20.775V27.1133H23.0992L22.3544 25.3098H18.3181L17.5657 27.1133H15.4602L18.9316 19.0276H21.8118L25.1088 26.6831V19.0276H28.2727L30.8096 24.5128L33.1401 19.0276H36.3676V27.1133H36.3679ZM44.2884 27.1133H37.8126V19.0276H44.2884V20.7114H39.7512V22.1688H44.1796V23.8263H39.7512V25.441H44.2884V27.1133ZM53.4191 21.2052C53.4191 22.4944 52.5561 23.1605 52.0531 23.3605C52.4773 23.5214 52.8396 23.8058 53.012 24.0414C53.2858 24.4435 53.333 24.8028 53.333 25.5249V27.1133H51.3777L51.3704 26.0937C51.3704 25.6071 51.4171 24.9074 51.0644 24.5184C50.7811 24.234 50.3494 24.1723 49.6515 24.1723H47.5705V27.1133H45.6321V19.0276H50.0908C51.0815 19.0276 51.8115 19.0537 52.4382 19.4149C53.0514 19.7761 53.4191 20.3034 53.4191 21.2052ZM56.5214 27.1133H54.5434V19.0276H56.5214V27.1133ZM79.4686 27.1133H76.7216L73.0471 21.0445V27.1133H69.0992L68.3448 25.3098H64.3179L63.586 27.1133H61.3176C60.3753 27.1133 59.1823 26.9055 58.5067 26.219C57.8254 25.5325 57.471 24.6026 57.471 23.1322C57.471 21.933 57.6828 20.8367 58.516 19.9705C59.1427 19.3251 60.1241 19.0276 61.46 19.0276H63.3367V20.7602H61.4994C60.7919 20.7602 60.3925 20.865 60.0077 21.2391C59.6772 21.5796 59.4504 22.2232 59.4504 23.0707C59.4504 23.937 59.6231 24.5616 59.9835 24.9696C60.2819 25.2896 60.8242 25.3866 61.3345 25.3866H62.2051L64.9373 19.0279H67.8419L71.1239 26.6758V19.0279H74.0755L77.4831 24.6591V19.0279H79.4686V27.1133ZM15.4377 28.7015H18.7499L19.4967 26.9055H21.1687L21.9136 28.7015H28.4305V27.3284L29.0122 28.7074H32.3953L32.977 27.308V28.7015H49.1727L49.1652 25.7534H49.4785C49.6979 25.761 49.762 25.7812 49.762 26.1424V28.7015H58.1385V28.0152C58.8142 28.3762 59.8651 28.7015 61.2479 28.7015H64.7719L65.5261 26.9055H67.198L67.9356 28.7015H74.7264V26.9955L75.7548 28.7015H81.1966V17.4243H75.8111V18.7562L75.0569 17.4243H69.5307V18.7562L68.8382 17.4243H61.3736C60.1241 17.4243 59.0258 17.5982 58.1385 18.0828V17.4243H52.9873V18.0828C52.4228 17.5833 51.6534 17.4243 50.798 17.4243H31.9787L30.716 20.337L29.4192 17.4243H23.4916V18.7562L22.8404 17.4243H17.7851L15.4375 22.7861V28.7015H15.4377Z" fill="white"/>
</svg>
