<svg width="100" height="60" viewBox="0 0 100 60" fill="none" xmlns="http://www.w3.org/2000/svg">
<rect width="100" height="60" rx="4" fill="black"/>
<path fill-rule="evenodd" clip-rule="evenodd" d="M31.8867 26.9585C31.9236 30.7828 35.3856 32.0552 35.4239 32.0715C35.3948 32.1618 34.871 33.8853 33.6001 35.6664C32.5016 37.2055 31.3609 38.7395 29.5655 38.7715C27.8005 38.8029 27.2331 37.7685 25.2151 37.7685C23.1978 37.7685 22.5669 38.7395 20.8964 38.8029C19.1631 38.8657 17.8427 37.1375 16.7349 35.6036C14.4712 32.4658 12.7413 26.7375 15.0644 22.8706C16.2184 20.9503 18.28 19.7341 20.5186 19.7034C22.2208 19.672 23.8279 20.8012 24.869 20.8012C25.9087 20.8012 27.8619 19.4432 29.9149 19.6426C30.7743 19.6772 33.1866 19.9754 34.7356 22.1494C34.6101 22.224 31.8563 23.7612 31.8867 26.9585ZM28.5694 17.5666C29.4895 16.4982 30.1098 15.0114 29.9407 13.5317C28.6136 13.5827 27.0091 14.3791 26.058 15.4469C25.2045 16.3923 24.4581 17.9053 24.6596 19.3562C26.1385 19.466 27.6492 18.6357 28.5694 17.5666Z" fill="white"/>
<path fill-rule="evenodd" clip-rule="evenodd" d="M41.8916 15.7377C42.574 15.624 43.3259 15.5219 44.1493 15.4308C44.972 15.3397 45.8769 15.2944 46.8654 15.2944C48.2763 15.2944 49.4927 15.4592 50.5152 15.7888C51.5385 16.1184 52.3786 16.5901 53.0362 17.204C53.601 17.7494 54.0427 18.397 54.3595 19.1472C54.6763 19.8975 54.8341 20.7615 54.8341 21.7392C54.8341 22.9212 54.6175 23.9558 54.1824 24.8424C53.748 25.729 53.1545 26.4734 52.402 27.0757C51.6487 27.678 50.7558 28.1265 49.7212 28.4225C48.686 28.7178 47.5578 28.8658 46.3347 28.8658C45.23 28.8658 44.3016 28.7863 43.5498 28.6273V38.4486H41.8916V15.7377ZM43.5498 27.1959C43.9494 27.309 44.3959 27.3885 44.8898 27.4337C45.3837 27.479 45.9123 27.5016 46.4764 27.5016C48.5924 27.5016 50.2325 27.024 51.3961 26.0696C52.5597 25.1151 53.1418 23.7167 53.1418 21.8756C53.1418 20.989 52.9894 20.2154 52.684 19.5563C52.3779 18.8965 51.9435 18.3569 51.3794 17.9362C50.8153 17.5155 50.145 17.1976 49.369 16.9811C48.5924 16.7652 47.7343 16.6573 46.7932 16.6573C46.0413 16.6573 45.3944 16.6858 44.8537 16.7426C44.313 16.7995 43.8779 16.8622 43.5491 16.93V27.1959H43.5498Z" fill="white"/>
<path fill-rule="evenodd" clip-rule="evenodd" d="M68.0198 34.5615C68.0198 35.2207 68.0311 35.8805 68.0545 36.5396C68.0779 37.1988 68.1481 37.8347 68.2664 38.4486H66.7145L66.4679 36.1299H66.3964C66.1852 36.4485 65.9145 36.7664 65.5857 37.0844C65.2568 37.4023 64.8745 37.6925 64.4401 37.9542C64.005 38.2159 63.5111 38.4259 62.9584 38.5849C62.4057 38.7432 61.8008 38.8234 61.1425 38.8234C60.3198 38.8234 59.596 38.6922 58.9724 38.4318C58.3495 38.17 57.8382 37.8288 57.4386 37.4088C57.0389 36.9875 56.7395 36.5047 56.5397 35.9593C56.3398 35.4139 56.2402 34.8685 56.2402 34.3224C56.2402 32.3902 57.0803 30.9013 58.7612 29.8551C60.4428 28.8089 62.9765 28.3093 66.3629 28.3546V27.9112C66.3629 27.4789 66.3215 26.9839 66.2393 26.4269C66.1564 25.8698 65.9746 25.3412 65.6919 24.8417C65.4099 24.3422 64.9868 23.9215 64.4228 23.5809C63.8587 23.2397 63.0941 23.0691 62.1303 23.0691C61.4012 23.0691 60.6787 23.177 59.9616 23.3929C59.2444 23.6087 58.5921 23.9098 58.0047 24.2963L57.4753 23.1027C58.2272 22.6032 59.0038 22.2452 59.8025 22.0293C60.6025 21.8135 61.4366 21.7056 62.3068 21.7056C63.4824 21.7056 64.4408 21.8988 65.1813 22.2852C65.9218 22.6717 66.504 23.1718 66.927 23.7851C67.3501 24.399 67.6388 25.0866 67.7912 25.8485C67.9436 26.6104 68.0211 27.3665 68.0211 28.1161V34.5615H68.0198ZM66.3623 29.6851C65.468 29.6619 64.533 29.6961 63.5572 29.7872C62.5821 29.8777 61.6825 30.0774 60.8598 30.3837C60.0364 30.6907 59.3554 31.1398 58.8147 31.7311C58.274 32.3224 58.0033 33.1062 58.0033 34.084C58.0033 35.2426 58.3442 36.0957 59.0266 36.6411C59.7076 37.1865 60.4715 37.4598 61.3183 37.4598C62 37.4598 62.6115 37.3694 63.1522 37.1865C63.6929 37.0043 64.1621 36.76 64.5624 36.4537C64.9628 36.1474 65.2969 35.8003 65.5676 35.4139C65.839 35.0268 66.0441 34.63 66.1858 34.2197C66.3035 33.7647 66.3629 33.4352 66.3629 33.2297V29.6851H66.3623Z" fill="white"/>
<path fill-rule="evenodd" clip-rule="evenodd" d="M71.2615 22.0797L75.5629 32.7192C75.7989 33.3105 76.0221 33.9186 76.234 34.5441C76.4458 35.1684 76.6336 35.7435 76.798 36.2656H76.8689C77.034 35.7661 77.2211 35.2032 77.433 34.5777C77.6448 33.9528 77.8801 33.3105 78.1381 32.65L82.1595 22.0791H83.9219L79.021 34.0833C78.5264 35.3558 78.0625 36.5106 77.6275 37.5445C77.193 38.5791 76.7513 39.511 76.3048 40.3407C75.8577 41.1705 75.4059 41.9033 74.9461 42.5405C74.4883 43.1763 73.9756 43.734 73.4122 44.211C72.7546 44.779 72.1484 45.1945 71.5957 45.4562C71.0436 45.7179 70.6734 45.8827 70.4849 45.9506L69.9195 44.6207C70.3432 44.4384 70.8137 44.2 71.331 43.9046C71.8483 43.6087 72.3542 43.2229 72.8475 42.7453C73.2712 42.3363 73.7357 41.7967 74.241 41.1252C74.7462 40.4551 75.1987 39.6422 75.599 38.687C75.7401 38.3232 75.8109 38.0841 75.8109 37.9704C75.8109 37.8121 75.7407 37.5729 75.599 37.2544L69.4971 22.0791H71.2615V22.0797Z" fill="white"/>
</svg>
