<svg width="100" height="60" viewBox="0 0 100 60" fill="none" xmlns="http://www.w3.org/2000/svg">
<rect width="100" height="60" rx="4" fill="#26337A"/>
<path fill-rule="evenodd" clip-rule="evenodd" d="M41.4902 39.5467L44.565 20.4727H49.4798L46.4054 39.5467H41.4902Z" fill="white"/>
<path fill-rule="evenodd" clip-rule="evenodd" d="M64.233 20.9409C63.2612 20.5581 61.7329 20.1406 59.8289 20.1406C54.9697 20.1406 51.5492 22.7291 51.5208 26.4356C51.4899 29.1772 53.9617 30.7063 55.8251 31.6175C57.7403 32.5516 58.3838 33.1494 58.3762 33.9846C58.363 35.262 56.8475 35.8474 55.4344 35.8474C53.4667 35.8474 52.4212 35.5592 50.8049 34.8471L50.1727 34.5434L49.4854 38.813C50.6314 39.3443 52.756 39.8054 54.961 39.8296C60.1252 39.8296 63.4808 37.2725 63.5201 33.3144C63.5378 31.1403 62.2282 29.4925 59.3918 28.1319C57.6742 27.2474 56.6201 26.6615 56.6322 25.7663C56.6333 24.9736 57.5227 24.1249 59.4477 24.1249C61.0554 24.0989 62.2192 24.4702 63.126 24.8578L63.5674 25.0758L64.233 20.9409Z" fill="white"/>
<path fill-rule="evenodd" clip-rule="evenodd" d="M70.7778 32.7843C71.1851 31.688 72.7357 27.4528 72.7357 27.4528C72.707 27.5032 73.1408 26.348 73.389 25.633L73.7207 27.2781C73.7207 27.2781 74.6638 31.8308 74.858 32.7843C74.0929 32.7843 71.7375 32.7843 70.7778 32.7843ZM76.8412 20.4922H73.0429C71.8648 20.4922 70.983 20.8297 70.4669 22.0733L63.168 39.5536H68.3302C68.3302 39.5536 69.1724 37.202 69.3635 36.686C69.9266 36.686 74.9427 36.6959 75.6586 36.6959C75.8059 37.3615 76.2571 39.5536 76.2571 39.5536H80.8189L76.8412 20.4922Z" fill="white"/>
<path fill-rule="evenodd" clip-rule="evenodd" d="M37.3666 20.4888L32.5561 33.4927L32.0408 30.8493C31.1444 27.8037 28.3538 24.5026 25.2324 22.8485L29.6334 39.5302L34.835 39.5271L42.575 20.4888H37.3666Z" fill="white"/>
<path fill-rule="evenodd" clip-rule="evenodd" d="M28.0906 20.4756H20.1648L20.0996 20.8708C26.2668 22.4508 30.3473 26.2646 32.041 30.8491L30.3187 22.0849C30.0215 20.8761 29.158 20.5178 28.0906 20.4756Z" fill="#EC982D"/>
</svg>
